<?xml version="1.0" encoding="UTF-8"?>
<svg id="Capa_2" data-name="Capa 2" xmlns="http://www.w3.org/2000/svg" viewBox="0 0 70.07 110.62">
  <defs>
    <style>
      .cls-1 {
        fill: #f9f2e9;
      }
    </style>
  </defs>
  <g id="Capa_1-2" data-name="Capa 1">
    <path class="cls-1" d="M20.87,110.62H0v-1.73h1.91c.91,0,1.66-.32,2.32-.93.64-.64.96-1.39.96-2.28V5.01c0-.89-.32-1.64-.93-2.25-.61-.64-1.39-.93-2.28-.93H0V0h15.79v6.21C20.98,2.07,27.06,0,34,0s12.72,1.48,18.16,4.44c5.44,2.96,9.79,7.24,13.04,12.83,3.23,5.6,4.87,12.38,4.87,20.34s-1.64,14.75-4.87,20.37c-3.25,5.62-7.6,9.93-13.06,12.9-5.48,2.99-11.52,4.58-18.14,4.58-1.95,0-6.3,0-8.26,0-.02-2.5,1.69-3.17,2.87-3.22h5.39c6.54,0,15.09-4.47,18.61-9.96,2.2-3.44,3.89-7.28,5.07-11.58,1.18-4.28,1.78-8.65,1.78-13.08s-.59-9.08-1.73-13.34c-1.16-4.28-2.84-8.1-5.05-11.47-2.18-3.39-4.85-6.05-7.99-8.03-3.14-1.98-6.71-2.96-10.7-2.96-3.34,0-6.6.59-9.81,1.82-3.21,1.23-6.01,3.12-8.4,5.71v96.33c0,.88.29,1.65.89,2.28.6.62,1.36.93,2.25.93h1.93v1.73Z"/>
  </g>
</svg>